<mxfile host="app.diagrams.net" modified="2020-10-11T16:33:35.198Z" agent="5.0 (Macintosh; Intel Mac OS X 10_14_6) AppleWebKit/537.36 (KHTML, like Gecko) Chrome/86.0.4240.75 Safari/537.36" etag="TcyWUx7r_hKMnE56g5dy" version="13.7.9" type="github">
  <diagram name="Page-1" id="74e2e168-ea6b-b213-b513-2b3c1d86103e">
    <mxGraphModel dx="1123" dy="603" grid="1" gridSize="10" guides="1" tooltips="1" connect="1" arrows="1" fold="1" page="1" pageScale="1" pageWidth="1100" pageHeight="850" background="#ffffff" math="0" shadow="0">
      <root>
        <mxCell id="0" />
        <mxCell id="1" parent="0" />
        <mxCell id="77e6c97f196da883-1" value="Responsive with Grid System Handler" style="swimlane;html=1;childLayout=stackLayout;startSize=20;rounded=0;shadow=0;labelBackgroundColor=none;strokeWidth=1;fontFamily=Verdana;fontSize=8;align=center;" parent="1" vertex="1">
          <mxGeometry x="70" y="40" width="620" height="850" as="geometry" />
        </mxCell>
        <mxCell id="77e6c97f196da883-2" value="Views" style="swimlane;html=1;startSize=20;" parent="77e6c97f196da883-1" vertex="1">
          <mxGeometry y="20" width="620" height="830" as="geometry" />
        </mxCell>
        <mxCell id="3Anv8mbUf183bVFwrVZ4-33" value="Yes" style="edgeStyle=orthogonalEdgeStyle;rounded=1;orthogonalLoop=1;jettySize=auto;html=1;entryX=0;entryY=0.5;entryDx=0;entryDy=0;entryPerimeter=0;" edge="1" parent="77e6c97f196da883-2" source="3Anv8mbUf183bVFwrVZ4-17" target="3Anv8mbUf183bVFwrVZ4-31">
          <mxGeometry relative="1" as="geometry" />
        </mxCell>
        <mxCell id="3Anv8mbUf183bVFwrVZ4-20" value="No" style="edgeStyle=orthogonalEdgeStyle;rounded=0;orthogonalLoop=1;jettySize=auto;html=1;entryX=0.5;entryY=0;entryDx=0;entryDy=0;" edge="1" parent="77e6c97f196da883-2" source="3Anv8mbUf183bVFwrVZ4-17" target="3Anv8mbUf183bVFwrVZ4-18">
          <mxGeometry relative="1" as="geometry" />
        </mxCell>
        <mxCell id="3Anv8mbUf183bVFwrVZ4-12" value="No" style="edgeStyle=orthogonalEdgeStyle;rounded=0;orthogonalLoop=1;jettySize=auto;html=1;" edge="1" parent="77e6c97f196da883-2" source="3Anv8mbUf183bVFwrVZ4-9" target="3Anv8mbUf183bVFwrVZ4-11">
          <mxGeometry relative="1" as="geometry" />
        </mxCell>
        <mxCell id="3Anv8mbUf183bVFwrVZ4-14" value="No" style="edgeStyle=orthogonalEdgeStyle;rounded=0;orthogonalLoop=1;jettySize=auto;html=1;" edge="1" parent="77e6c97f196da883-2" source="3Anv8mbUf183bVFwrVZ4-11" target="3Anv8mbUf183bVFwrVZ4-13">
          <mxGeometry relative="1" as="geometry" />
        </mxCell>
        <mxCell id="3Anv8mbUf183bVFwrVZ4-16" value="No" style="edgeStyle=orthogonalEdgeStyle;rounded=0;orthogonalLoop=1;jettySize=auto;html=1;" edge="1" parent="77e6c97f196da883-2" source="3Anv8mbUf183bVFwrVZ4-13" target="3Anv8mbUf183bVFwrVZ4-15">
          <mxGeometry relative="1" as="geometry" />
        </mxCell>
        <mxCell id="3Anv8mbUf183bVFwrVZ4-19" value="No" style="edgeStyle=orthogonalEdgeStyle;rounded=0;orthogonalLoop=1;jettySize=auto;html=1;entryX=0.5;entryY=0;entryDx=0;entryDy=0;" edge="1" parent="77e6c97f196da883-2" source="3Anv8mbUf183bVFwrVZ4-15" target="3Anv8mbUf183bVFwrVZ4-17">
          <mxGeometry relative="1" as="geometry" />
        </mxCell>
        <mxCell id="3Anv8mbUf183bVFwrVZ4-22" value="Yes" style="edgeStyle=orthogonalEdgeStyle;rounded=1;orthogonalLoop=1;jettySize=auto;html=1;entryX=0;entryY=0.5;entryDx=0;entryDy=0;entryPerimeter=0;" edge="1" parent="77e6c97f196da883-2" source="3Anv8mbUf183bVFwrVZ4-9" target="3Anv8mbUf183bVFwrVZ4-21">
          <mxGeometry x="-0.2" relative="1" as="geometry">
            <mxPoint as="offset" />
          </mxGeometry>
        </mxCell>
        <mxCell id="3Anv8mbUf183bVFwrVZ4-36" value="Yes" style="edgeStyle=orthogonalEdgeStyle;rounded=1;orthogonalLoop=1;jettySize=auto;html=1;entryX=0;entryY=0.5;entryDx=0;entryDy=0;entryPerimeter=0;" edge="1" parent="77e6c97f196da883-2" source="3Anv8mbUf183bVFwrVZ4-18" target="3Anv8mbUf183bVFwrVZ4-34">
          <mxGeometry relative="1" as="geometry" />
        </mxCell>
        <mxCell id="3Anv8mbUf183bVFwrVZ4-23" value="Yes" style="edgeStyle=orthogonalEdgeStyle;rounded=1;orthogonalLoop=1;jettySize=auto;html=1;entryX=0;entryY=0.5;entryDx=0;entryDy=0;entryPerimeter=0;exitX=1;exitY=0.5;exitDx=0;exitDy=0;" edge="1" parent="77e6c97f196da883-2" target="3Anv8mbUf183bVFwrVZ4-24" source="3Anv8mbUf183bVFwrVZ4-11">
          <mxGeometry x="-0.2" relative="1" as="geometry">
            <mxPoint x="130" y="289.9999999999999" as="sourcePoint" />
            <mxPoint as="offset" />
          </mxGeometry>
        </mxCell>
        <mxCell id="3Anv8mbUf183bVFwrVZ4-27" value="Yes" style="edgeStyle=orthogonalEdgeStyle;rounded=1;orthogonalLoop=1;jettySize=auto;html=1;entryX=0;entryY=0.5;entryDx=0;entryDy=0;entryPerimeter=0;" edge="1" parent="77e6c97f196da883-2" source="3Anv8mbUf183bVFwrVZ4-13" target="3Anv8mbUf183bVFwrVZ4-25">
          <mxGeometry relative="1" as="geometry" />
        </mxCell>
        <mxCell id="3Anv8mbUf183bVFwrVZ4-30" value="Yes" style="edgeStyle=orthogonalEdgeStyle;rounded=1;orthogonalLoop=1;jettySize=auto;html=1;entryX=0;entryY=0.5;entryDx=0;entryDy=0;entryPerimeter=0;" edge="1" parent="77e6c97f196da883-2" source="3Anv8mbUf183bVFwrVZ4-15" target="3Anv8mbUf183bVFwrVZ4-28">
          <mxGeometry relative="1" as="geometry" />
        </mxCell>
        <mxCell id="3Anv8mbUf183bVFwrVZ4-43" style="edgeStyle=orthogonalEdgeStyle;rounded=1;orthogonalLoop=1;jettySize=auto;html=1;entryX=0;entryY=0.5;entryDx=0;entryDy=0;entryPerimeter=0;" edge="1" parent="77e6c97f196da883-2" source="3Anv8mbUf183bVFwrVZ4-34" target="3Anv8mbUf183bVFwrVZ4-37">
          <mxGeometry relative="1" as="geometry">
            <Array as="points">
              <mxPoint x="480" y="770" />
              <mxPoint x="480" y="510" />
            </Array>
          </mxGeometry>
        </mxCell>
        <mxCell id="3Anv8mbUf183bVFwrVZ4-50" style="edgeStyle=orthogonalEdgeStyle;rounded=1;orthogonalLoop=1;jettySize=auto;html=1;entryX=0;entryY=0.5;entryDx=0;entryDy=0;dashed=1;" edge="1" parent="77e6c97f196da883-2" source="3Anv8mbUf183bVFwrVZ4-49" target="3Anv8mbUf183bVFwrVZ4-9">
          <mxGeometry relative="1" as="geometry" />
        </mxCell>
        <mxCell id="3Anv8mbUf183bVFwrVZ4-51" style="edgeStyle=orthogonalEdgeStyle;rounded=1;orthogonalLoop=1;jettySize=auto;html=1;entryX=0;entryY=0.5;entryDx=0;entryDy=0;dashed=1;" edge="1" parent="77e6c97f196da883-2" source="3Anv8mbUf183bVFwrVZ4-49" target="3Anv8mbUf183bVFwrVZ4-11">
          <mxGeometry relative="1" as="geometry" />
        </mxCell>
        <mxCell id="3Anv8mbUf183bVFwrVZ4-52" style="edgeStyle=orthogonalEdgeStyle;rounded=1;orthogonalLoop=1;jettySize=auto;html=1;entryX=0;entryY=0.5;entryDx=0;entryDy=0;dashed=1;" edge="1" parent="77e6c97f196da883-2" source="3Anv8mbUf183bVFwrVZ4-49" target="3Anv8mbUf183bVFwrVZ4-13">
          <mxGeometry relative="1" as="geometry" />
        </mxCell>
        <mxCell id="3Anv8mbUf183bVFwrVZ4-53" style="edgeStyle=orthogonalEdgeStyle;rounded=1;orthogonalLoop=1;jettySize=auto;html=1;entryX=0.5;entryY=1;entryDx=0;entryDy=0;dashed=1;" edge="1" parent="77e6c97f196da883-2" source="3Anv8mbUf183bVFwrVZ4-49" target="3Anv8mbUf183bVFwrVZ4-15">
          <mxGeometry relative="1" as="geometry" />
        </mxCell>
        <mxCell id="3Anv8mbUf183bVFwrVZ4-54" style="edgeStyle=orthogonalEdgeStyle;rounded=1;orthogonalLoop=1;jettySize=auto;html=1;entryX=0;entryY=0.5;entryDx=0;entryDy=0;dashed=1;" edge="1" parent="77e6c97f196da883-2" source="3Anv8mbUf183bVFwrVZ4-49" target="3Anv8mbUf183bVFwrVZ4-17">
          <mxGeometry relative="1" as="geometry" />
        </mxCell>
        <mxCell id="3Anv8mbUf183bVFwrVZ4-55" style="edgeStyle=orthogonalEdgeStyle;rounded=1;orthogonalLoop=1;jettySize=auto;html=1;entryX=0;entryY=0.5;entryDx=0;entryDy=0;dashed=1;" edge="1" parent="77e6c97f196da883-2" source="3Anv8mbUf183bVFwrVZ4-49" target="3Anv8mbUf183bVFwrVZ4-18">
          <mxGeometry relative="1" as="geometry" />
        </mxCell>
        <mxCell id="3Anv8mbUf183bVFwrVZ4-49" value="previous point" style="ellipse;whiteSpace=wrap;html=1;aspect=fixed;" vertex="1" parent="77e6c97f196da883-2">
          <mxGeometry x="5" y="450" width="50" height="50" as="geometry" />
        </mxCell>
        <mxCell id="3Anv8mbUf183bVFwrVZ4-34" value="hi-res laptop and desktops" style="strokeWidth=2;html=1;shape=mxgraph.flowchart.display;whiteSpace=wrap;" vertex="1" parent="77e6c97f196da883-2">
          <mxGeometry x="180" y="740" width="260" height="60" as="geometry" />
        </mxCell>
        <mxCell id="3Anv8mbUf183bVFwrVZ4-42" style="edgeStyle=orthogonalEdgeStyle;rounded=1;orthogonalLoop=1;jettySize=auto;html=1;entryX=0;entryY=0.5;entryDx=0;entryDy=0;entryPerimeter=0;" edge="1" parent="77e6c97f196da883-2" source="3Anv8mbUf183bVFwrVZ4-31" target="3Anv8mbUf183bVFwrVZ4-37">
          <mxGeometry relative="1" as="geometry">
            <Array as="points">
              <mxPoint x="470" y="650" />
              <mxPoint x="470" y="510" />
            </Array>
          </mxGeometry>
        </mxCell>
        <mxCell id="3Anv8mbUf183bVFwrVZ4-31" value="big landscape tablets, laptops, &lt;br&gt;and desktops" style="strokeWidth=2;html=1;shape=mxgraph.flowchart.display;whiteSpace=wrap;" vertex="1" parent="77e6c97f196da883-2">
          <mxGeometry x="180" y="620" width="250" height="60" as="geometry" />
        </mxCell>
        <mxCell id="3Anv8mbUf183bVFwrVZ4-40" style="edgeStyle=orthogonalEdgeStyle;rounded=1;orthogonalLoop=1;jettySize=auto;html=1;entryX=0.5;entryY=1;entryDx=0;entryDy=0;" edge="1" parent="77e6c97f196da883-2" source="3Anv8mbUf183bVFwrVZ4-25" target="3Anv8mbUf183bVFwrVZ4-45">
          <mxGeometry relative="1" as="geometry">
            <Array as="points">
              <mxPoint x="410" y="410" />
            </Array>
          </mxGeometry>
        </mxCell>
        <mxCell id="3Anv8mbUf183bVFwrVZ4-25" value="portrait tablets, portrait iPad, landscape e-readers, landscape 800x480 or 854x480 phones" style="strokeWidth=2;html=1;shape=mxgraph.flowchart.display;whiteSpace=wrap;" vertex="1" parent="77e6c97f196da883-2">
          <mxGeometry x="180" y="380" width="210" height="60" as="geometry" />
        </mxCell>
        <mxCell id="3Anv8mbUf183bVFwrVZ4-41" style="edgeStyle=orthogonalEdgeStyle;rounded=1;orthogonalLoop=1;jettySize=auto;html=1;entryX=0;entryY=0.5;entryDx=0;entryDy=0;exitX=1;exitY=0.5;exitDx=0;exitDy=0;exitPerimeter=0;entryPerimeter=0;" edge="1" parent="77e6c97f196da883-2" source="3Anv8mbUf183bVFwrVZ4-28" target="3Anv8mbUf183bVFwrVZ4-37">
          <mxGeometry relative="1" as="geometry">
            <Array as="points">
              <mxPoint x="460" y="530" />
              <mxPoint x="460" y="510" />
            </Array>
          </mxGeometry>
        </mxCell>
        <mxCell id="3Anv8mbUf183bVFwrVZ4-28" value="tablet, landscape iPad, &lt;br&gt;lo-res laptops ands desktops" style="strokeWidth=2;html=1;shape=mxgraph.flowchart.display;whiteSpace=wrap;" vertex="1" parent="77e6c97f196da883-2">
          <mxGeometry x="180" y="500" width="230" height="60" as="geometry" />
        </mxCell>
        <mxCell id="3Anv8mbUf183bVFwrVZ4-39" style="edgeStyle=orthogonalEdgeStyle;rounded=1;orthogonalLoop=1;jettySize=auto;html=1;entryX=0;entryY=0.5;entryDx=0;entryDy=0;entryPerimeter=0;exitX=1;exitY=0.5;exitDx=0;exitDy=0;" edge="1" parent="77e6c97f196da883-2" source="3Anv8mbUf183bVFwrVZ4-45" target="3Anv8mbUf183bVFwrVZ4-37">
          <mxGeometry relative="1" as="geometry">
            <Array as="points">
              <mxPoint x="457" y="290" />
              <mxPoint x="457" y="510" />
            </Array>
          </mxGeometry>
        </mxCell>
        <mxCell id="3Anv8mbUf183bVFwrVZ4-24" value="portrait e-readers (Nook/Kindle), smaller tablets @ 600 or @ 640 wide." style="strokeWidth=2;html=1;shape=mxgraph.flowchart.display;whiteSpace=wrap;" vertex="1" parent="77e6c97f196da883-2">
          <mxGeometry x="180" y="260" width="160" height="60" as="geometry" />
        </mxCell>
        <mxCell id="3Anv8mbUf183bVFwrVZ4-38" style="edgeStyle=orthogonalEdgeStyle;rounded=1;orthogonalLoop=1;jettySize=auto;html=1;entryX=0.5;entryY=0;entryDx=0;entryDy=0;" edge="1" parent="77e6c97f196da883-2" source="3Anv8mbUf183bVFwrVZ4-21" target="3Anv8mbUf183bVFwrVZ4-45">
          <mxGeometry relative="1" as="geometry">
            <Array as="points">
              <mxPoint x="410" y="170" />
            </Array>
          </mxGeometry>
        </mxCell>
        <mxCell id="3Anv8mbUf183bVFwrVZ4-21" value="Display:&lt;br&gt;smartphones, iPhone, portrait 480x320 phones" style="strokeWidth=2;html=1;shape=mxgraph.flowchart.display;whiteSpace=wrap;" vertex="1" parent="77e6c97f196da883-2">
          <mxGeometry x="180" y="140" width="130" height="60" as="geometry" />
        </mxCell>
        <mxCell id="3Anv8mbUf183bVFwrVZ4-18" value="&lt;span&gt;min-width 1281px?&lt;/span&gt;" style="rhombus;whiteSpace=wrap;html=1;" vertex="1" parent="77e6c97f196da883-2">
          <mxGeometry x="50" y="730" width="80" height="80" as="geometry" />
        </mxCell>
        <mxCell id="3Anv8mbUf183bVFwrVZ4-9" value="min-width 320px?" style="rhombus;whiteSpace=wrap;html=1;" vertex="1" parent="77e6c97f196da883-2">
          <mxGeometry x="50" y="130" width="80" height="80" as="geometry" />
        </mxCell>
        <mxCell id="3Anv8mbUf183bVFwrVZ4-11" value="&lt;span&gt;min-width 481px?&lt;/span&gt;" style="rhombus;whiteSpace=wrap;html=1;" vertex="1" parent="77e6c97f196da883-2">
          <mxGeometry x="50" y="250" width="80" height="80" as="geometry" />
        </mxCell>
        <mxCell id="3Anv8mbUf183bVFwrVZ4-13" value="&lt;span&gt;min-width 641px?&lt;/span&gt;" style="rhombus;whiteSpace=wrap;html=1;" vertex="1" parent="77e6c97f196da883-2">
          <mxGeometry x="50" y="370" width="80" height="80" as="geometry" />
        </mxCell>
        <mxCell id="3Anv8mbUf183bVFwrVZ4-15" value="&lt;span&gt;min-width 961px?&lt;/span&gt;" style="rhombus;whiteSpace=wrap;html=1;direction=south;" vertex="1" parent="77e6c97f196da883-2">
          <mxGeometry x="50" y="490" width="80" height="80" as="geometry" />
        </mxCell>
        <mxCell id="3Anv8mbUf183bVFwrVZ4-17" value="&lt;span&gt;min-width 1025px?&lt;/span&gt;" style="rhombus;whiteSpace=wrap;html=1;" vertex="1" parent="77e6c97f196da883-2">
          <mxGeometry x="50" y="610" width="80" height="80" as="geometry" />
        </mxCell>
        <mxCell id="3Anv8mbUf183bVFwrVZ4-3" value="" style="edgeStyle=orthogonalEdgeStyle;rounded=1;orthogonalLoop=1;jettySize=auto;html=1;" edge="1" parent="77e6c97f196da883-2" source="3Anv8mbUf183bVFwrVZ4-1" target="3Anv8mbUf183bVFwrVZ4-2">
          <mxGeometry relative="1" as="geometry" />
        </mxCell>
        <mxCell id="3Anv8mbUf183bVFwrVZ4-5" value="" style="edgeStyle=orthogonalEdgeStyle;rounded=1;orthogonalLoop=1;jettySize=auto;html=1;" edge="1" parent="77e6c97f196da883-2" source="3Anv8mbUf183bVFwrVZ4-2" target="3Anv8mbUf183bVFwrVZ4-4">
          <mxGeometry relative="1" as="geometry" />
        </mxCell>
        <mxCell id="3Anv8mbUf183bVFwrVZ4-10" value="" style="edgeStyle=orthogonalEdgeStyle;rounded=0;orthogonalLoop=1;jettySize=auto;html=1;" edge="1" parent="77e6c97f196da883-2" source="3Anv8mbUf183bVFwrVZ4-4" target="3Anv8mbUf183bVFwrVZ4-9">
          <mxGeometry relative="1" as="geometry" />
        </mxCell>
        <mxCell id="3Anv8mbUf183bVFwrVZ4-4" value="defines breakpoint" style="whiteSpace=wrap;html=1;" vertex="1" parent="77e6c97f196da883-2">
          <mxGeometry x="30" y="40" width="120" height="60" as="geometry" />
        </mxCell>
        <mxCell id="3Anv8mbUf183bVFwrVZ4-2" value="check/read user&#39;s screen resolution" style="whiteSpace=wrap;html=1;" vertex="1" parent="77e6c97f196da883-2">
          <mxGeometry x="220" y="40" width="120" height="60" as="geometry" />
        </mxCell>
        <mxCell id="3Anv8mbUf183bVFwrVZ4-1" value="Start" style="ellipse;whiteSpace=wrap;html=1;" vertex="1" parent="77e6c97f196da883-2">
          <mxGeometry x="390" y="55" width="120" height="30" as="geometry" />
        </mxCell>
        <mxCell id="3Anv8mbUf183bVFwrVZ4-48" value="No" style="edgeStyle=orthogonalEdgeStyle;rounded=1;orthogonalLoop=1;jettySize=auto;html=1;entryX=0.5;entryY=0;entryDx=0;entryDy=0;" edge="1" parent="77e6c97f196da883-2" source="3Anv8mbUf183bVFwrVZ4-37" target="3Anv8mbUf183bVFwrVZ4-47">
          <mxGeometry relative="1" as="geometry" />
        </mxCell>
        <mxCell id="3Anv8mbUf183bVFwrVZ4-56" value="is from landscape?" style="rhombus;whiteSpace=wrap;html=1;" vertex="1" parent="77e6c97f196da883-2">
          <mxGeometry x="500" y="325" width="100" height="80" as="geometry" />
        </mxCell>
        <mxCell id="3Anv8mbUf183bVFwrVZ4-47" value="previous point" style="ellipse;whiteSpace=wrap;html=1;aspect=fixed;" vertex="1" parent="77e6c97f196da883-2">
          <mxGeometry x="520" y="610" width="60" height="60" as="geometry" />
        </mxCell>
        <mxCell id="3Anv8mbUf183bVFwrVZ4-57" value="Yes" style="edgeStyle=orthogonalEdgeStyle;rounded=1;orthogonalLoop=1;jettySize=auto;html=1;entryX=0.5;entryY=1;entryDx=0;entryDy=0;" edge="1" parent="77e6c97f196da883-2" source="3Anv8mbUf183bVFwrVZ4-37" target="3Anv8mbUf183bVFwrVZ4-56">
          <mxGeometry relative="1" as="geometry" />
        </mxCell>
        <mxCell id="3Anv8mbUf183bVFwrVZ4-37" value="is resolution changed?" style="strokeWidth=2;html=1;shape=mxgraph.flowchart.decision;whiteSpace=wrap;" vertex="1" parent="77e6c97f196da883-2">
          <mxGeometry x="500" y="460" width="100" height="100" as="geometry" />
        </mxCell>
        <mxCell id="3Anv8mbUf183bVFwrVZ4-45" value="show bottom navigation for&lt;br&gt;mobile/potrait &lt;br&gt;tablet " style="shape=parallelogram;html=1;strokeWidth=2;perimeter=parallelogramPerimeter;whiteSpace=wrap;rounded=1;arcSize=12;size=0.23;" vertex="1" parent="77e6c97f196da883-2">
          <mxGeometry x="360" y="260" width="100" height="60" as="geometry" />
        </mxCell>
        <mxCell id="3Anv8mbUf183bVFwrVZ4-46" style="edgeStyle=orthogonalEdgeStyle;rounded=1;orthogonalLoop=1;jettySize=auto;html=1;entryX=0;entryY=0.5;entryDx=0;entryDy=0;" edge="1" parent="77e6c97f196da883-2" source="3Anv8mbUf183bVFwrVZ4-24" target="3Anv8mbUf183bVFwrVZ4-45">
          <mxGeometry relative="1" as="geometry">
            <mxPoint x="410" y="350.0000000000001" as="sourcePoint" />
            <mxPoint x="570" y="389.9999999999999" as="targetPoint" />
            <Array as="points" />
          </mxGeometry>
        </mxCell>
        <mxCell id="3Anv8mbUf183bVFwrVZ4-59" value="Yes//No" style="edgeStyle=orthogonalEdgeStyle;rounded=1;orthogonalLoop=1;jettySize=auto;html=1;" edge="1" parent="77e6c97f196da883-2" source="3Anv8mbUf183bVFwrVZ4-56" target="3Anv8mbUf183bVFwrVZ4-58">
          <mxGeometry relative="1" as="geometry" />
        </mxCell>
        <mxCell id="3Anv8mbUf183bVFwrVZ4-60" style="edgeStyle=orthogonalEdgeStyle;rounded=1;orthogonalLoop=1;jettySize=auto;html=1;" edge="1" parent="77e6c97f196da883-2" source="3Anv8mbUf183bVFwrVZ4-58">
          <mxGeometry relative="1" as="geometry">
            <mxPoint x="90" y="110" as="targetPoint" />
            <Array as="points">
              <mxPoint x="550" y="110" />
              <mxPoint x="90" y="110" />
            </Array>
          </mxGeometry>
        </mxCell>
        <mxCell id="3Anv8mbUf183bVFwrVZ4-58" value="transform column grid to row // vice versa" style="whiteSpace=wrap;html=1;" vertex="1" parent="77e6c97f196da883-2">
          <mxGeometry x="490" y="210" width="120" height="60" as="geometry" />
        </mxCell>
      </root>
    </mxGraphModel>
  </diagram>
</mxfile>
